<svg id="Layer_1" data-name="Layer 1" xmlns="http://www.w3.org/2000/svg" viewBox="0 0 628.43 181.78"><defs><style>.cls-1,.cls-2,.cls-3,.cls-4,.cls-5{fill-rule:evenodd;}.cls-2{fill:#16609d;}.cls-3{fill:#007f97;}.cls-4{fill:#0eb246;}.cls-5{fill:#00b5d7;}</style></defs><path class="cls-1" d="M339.66,381.64H317.19v51.91h12V419.23h10.45c13.87,0,22.55-7.19,22.55-18.76s-8.68-18.83-22.55-18.83ZM339,409.45h-9.79v-18H339c7.34,0,11,3.34,11,9.05s-3.7,9-11,9Zm84.24,24.1L411.6,416.86c6.75-2.89,10.68-8.6,10.68-16.39,0-11.64-8.68-18.83-22.55-18.83H377.26v51.91h12V419.09h11.05l10,14.46Zm-13.13-33.08c0,5.64-3.7,9-11.05,9h-9.78v-18.1h9.78c7.35,0,11.05,3.34,11.05,9.05Zm53.32,34c16.32,0,28.41-11.35,28.41-26.85s-12.09-26.84-28.41-26.84S435,392.17,435,407.59s12,26.85,28.4,26.85Zm0-10.24c-9.26,0-16.24-6.75-16.24-16.61s7-16.61,16.24-16.61,16.25,6.75,16.25,16.61-7,16.61-16.25,16.61Zm95.67-42.56-22.32,38.48-22.55-38.48h-4.52v51.91H515V392.24L535.37,427H538L558.36,392v41.53h5.26V381.64ZM609.27,434c15.57,0,27.21-11.2,27.21-26.4s-11.64-26.4-27.21-26.4c-15.73,0-27.29,11.27-27.29,26.4S593.54,434,609.27,434Zm0-4.89c-12.54,0-21.88-9.12-21.88-21.51s9.34-21.5,21.88-21.5S631,395.21,631,407.59s-9.27,21.51-21.72,21.51Zm54.91,4.45h5.49V386.38h18.24v-4.74h-42v4.74h18.24v47.17Zm44-4.75V409.52H735v-4.67H708.19V386.38H738.3v-4.74H702.7v51.91h36.71V428.8Z" transform="translate(-110.98 -334.31)"/><path class="cls-1" d="M333.12,469.5h2l-8-17.56h-1.83l-8,17.56h1.94l2.1-4.69H331l2.11,4.69Zm-11.21-6.2,4.21-9.43,4.22,9.43Zm24.87,6.35c4.49,0,6.54-2.21,6.54-4.79,0-6.4-10.81-3.49-10.81-8.3,0-1.76,1.43-3.19,4.64-3.19a9,9,0,0,1,4.82,1.46l.62-1.48a9.88,9.88,0,0,0-5.44-1.56c-4.46,0-6.47,2.23-6.47,4.82,0,6.49,10.81,3.53,10.81,8.35,0,1.73-1.43,3.11-4.71,3.11a8.64,8.64,0,0,1-5.8-2.13l-.73,1.43a9.56,9.56,0,0,0,6.53,2.28Zm19.37,0c4.49,0,6.55-2.21,6.55-4.79,0-6.4-10.81-3.49-10.81-8.3,0-1.76,1.43-3.19,4.64-3.19a9,9,0,0,1,4.81,1.46l.63-1.48a9.91,9.91,0,0,0-5.44-1.56c-4.47,0-6.47,2.23-6.47,4.82,0,6.49,10.8,3.53,10.8,8.35,0,1.73-1.43,3.11-4.71,3.11a8.59,8.59,0,0,1-5.79-2.13l-.73,1.43a9.54,9.54,0,0,0,6.52,2.28Zm16.39-1.76v-6.52h9.08v-1.58h-9.08v-6.24h10.18v-1.61h-12V469.5H393.1v-1.61Zm23.71,1.76c4.49,0,6.55-2.21,6.55-4.79,0-6.4-10.81-3.49-10.81-8.3,0-1.76,1.43-3.19,4.64-3.19a9,9,0,0,1,4.81,1.46l.63-1.48a9.88,9.88,0,0,0-5.44-1.56c-4.47,0-6.47,2.23-6.47,4.82,0,6.49,10.81,3.53,10.81,8.35,0,1.73-1.43,3.11-4.72,3.11a8.59,8.59,0,0,1-5.79-2.13l-.73,1.43a9.55,9.55,0,0,0,6.52,2.28Zm19.37,0c4.5,0,6.55-2.21,6.55-4.79,0-6.4-10.81-3.49-10.81-8.3,0-1.76,1.43-3.19,4.64-3.19a9,9,0,0,1,4.82,1.46l.62-1.48a9.88,9.88,0,0,0-5.44-1.56c-4.46,0-6.47,2.23-6.47,4.82,0,6.49,10.81,3.53,10.81,8.35,0,1.73-1.43,3.11-4.72,3.11a8.63,8.63,0,0,1-5.79-2.13l-.73,1.43a9.55,9.55,0,0,0,6.52,2.28Zm31.24-17.71-7.55,13-7.62-13h-1.53V469.5h1.78v-14l6.9,11.74h.87l6.9-11.82V469.5h1.78V451.94Zm13.06,15.95v-6.52H479v-1.58h-9.08v-6.24H480.1v-1.61h-12V469.5h12.41v-1.61Zm31.71-15.95v14.25l-11.31-14.25h-1.53V469.5h1.85V455.25l11.29,14.25h1.53V451.94Zm14.91,17.56h1.86V453.55h6.16v-1.61H510.37v1.61h6.17V469.5Zm20.15-6h6.57v-1.56h-6.57v1.56Zm35.48,6-4.29-6a5.44,5.44,0,0,0,4-5.52c0-3.76-2.71-6-7.17-6h-6.57V469.5H560v-5.57h4.72a12.49,12.49,0,0,0,1.4-.07l4,5.64Zm-7.5-7.15H560v-8.8h4.67c3.51,0,5.37,1.6,5.37,4.41s-1.86,4.39-5.37,4.39Zm17.41,5.54v-6.52h9.08v-1.58h-9.08v-6.24h10.19v-1.61h-12V469.5h12.41v-1.61ZM601,469.5h7.15c5.61,0,9.4-3.61,9.4-8.78s-3.79-8.78-9.4-8.78H601V469.5Zm1.85-1.61V453.55H608c4.67,0,7.68,3,7.68,7.17s-3,7.17-7.68,7.17Zm24.67,0v-6.52h9.08v-1.58h-9.08v-6.24h10.18v-1.61h-12V469.5H638v-1.61Zm30.91-14.34v-1.61h-12V469.5h1.86v-7.45h9.08v-1.61h-9.08v-6.89Zm7.79,15.95H668V451.94h-1.85V469.5Zm24.36-17.56v14.25l-11.31-14.25H677.7V469.5h1.86V455.25l11.28,14.25h1.53V451.94Zm13.36,15.95v-6.52H713v-1.58H703.9v-6.24h10.18v-1.61H702V469.5h12.42v-1.61Zm18.87,1.61h7.15c5.62,0,9.4-3.61,9.4-8.78s-3.78-8.78-9.4-8.78h-7.15V469.5Zm1.85-1.61V453.55h5.2c4.66,0,7.67,3,7.67,7.17s-3,7.17-7.67,7.17Z" transform="translate(-110.98 -334.31)"/><polygon class="cls-2" points="101.85 101.85 123.76 101.85 135.46 90.15 145.68 79.93 163.58 79.93 181.78 79.93 130.11 131.6 130.11 131.6 126.28 135.46 90.89 135.46 79.93 123.76 101.85 123.76 101.85 101.85"/><polygon class="cls-3" points="79.93 101.85 79.93 123.76 91.63 135.46 101.85 145.68 101.85 163.58 101.85 181.78 50.18 130.11 50.18 130.11 46.32 126.28 46.32 90.89 58.02 79.93 58.02 101.85 79.93 101.85"/><polygon class="cls-4" points="79.93 79.93 58.02 79.93 46.32 91.63 36.1 101.85 18.2 101.85 0 101.85 51.67 50.18 51.67 50.18 55.5 46.32 90.89 46.32 101.85 58.02 79.93 58.02 79.93 79.93"/><polygon class="cls-5" points="101.85 79.93 101.85 58.02 90.15 46.32 79.93 36.1 79.93 18.2 79.93 0 131.6 51.67 131.6 51.67 135.46 55.5 135.46 90.89 123.76 101.85 123.76 79.93 101.85 79.93"/></svg>